<svg width="400" height="300" viewBox="0 0 400 300" xmlns="http://www.w3.org/2000/svg" class="drop-shadow-lg" __v0_r="0,1096,1112"><defs><radialGradient id="circleGradient" cx="50%" cy="50%" r="50%"><stop offset="0%" stop-color="#ffffff"/><stop offset="40%" stop-color="#fef7f7"/><stop offset="70%" stop-color="#fef2f2"/><stop offset="100%" stop-color="#fee2e2"/></radialGradient><linearGradient id="borderGradient" x1="0%" y1="0%" x2="100%" y2="100%"><stop offset="0%" stop-color="#dc2626"/><stop offset="25%" stop-color="#ef4444"/><stop offset="50%" stop-color="#f87171"/><stop offset="75%" stop-color="#ef4444"/><stop offset="100%" stop-color="#dc2626"/></linearGradient><linearGradient id="textGradient" x1="0%" y1="0%" x2="100%" y2="0%"><stop offset="0%" stop-color="#dc2626"/><stop offset="30%" stop-color="#ef4444"/><stop offset="70%" stop-color="#f87171"/><stop offset="100%" stop-color="#dc2626"/></linearGradient><filter id="dropShadow" x="-20%" y="-20%" width="140%" height="140%"><feDropShadow dx="3" dy="5" stdDeviation="4" flood-color="#000000" flood-opacity="0.25"/></filter><filter id="textShadow" x="-20%" y="-20%" width="140%" height="140%"><feDropShadow dx="2" dy="3" stdDeviation="2" flood-color="#000000" flood-opacity="0.3"/></filter></defs><circle cx="200" cy="150" r="75" fill="url(#circleGradient)" stroke="url(#borderGradient)" stroke-width="4" filter="url(#dropShadow)"><animate attributeName="r" values="75;78;75" dur="2s" repeatCount="indefinite"/><animate attributeName="stroke-width" values="4;6;4" dur="2s" repeatCount="indefinite"/></circle><g transform="translate(200,150)"><g opacity="0.5"><path d="M-60,15 L-50,15 L-45,15 L-40,0 L-35,30 L-30,-20 L-25,35 L-20,-15 L-15,15 L-10,15 L10,15 L15,15 L20,0 L25,30 L30,-20 L35,35 L40,-15 L45,15 L50,15 L60,15" stroke="#dc2626" stroke-width="2.5" fill="none" opacity="0.6"><animate attributeName="stroke-dasharray" values="0,240;120,120;240,0;0,240" dur="3s" repeatCount="indefinite"/><animate attributeName="opacity" values="0.6;0.3;0.6" dur="2s" repeatCount="indefinite"/></path><path d="M-60,-15 L-50,-15 L-45,-15 L-40,-30 L-35,0 L-30,-40 L-25,5 L-20,-35 L-15,-15 L-10,-15 L10,-15 L15,-15 L20,-30 L25,0 L30,-40 L35,5 L40,-35 L45,-15 L50,-15 L60,-15" stroke="#f87171" stroke-width="1.5" fill="none" opacity="0.4"><animate attributeName="stroke-dasharray" values="240,0;120,120;0,240;240,0" dur="4s" repeatCount="indefinite"/></path><path d="M-60,35 L-50,35 L-45,35 L-40,20 L-35,50 L-30,10 L-25,55 L-20,5 L-15,35 L-10,35 L10,35 L15,35 L20,20 L25,50 L30,10 L35,55 L40,5 L45,35 L50,35 L60,35" stroke="#ef4444" stroke-width="1.8" fill="none" opacity="0.3"><animate attributeName="stroke-dasharray" values="120,120;240,0;0,240;120,120" dur="5s" repeatCount="indefinite"/></path></g><g opacity="0.15"><g transform="translate(-45,-35)"><rect x="-1" y="-3" width="2" height="6" fill="#dc2626"/><rect x="-3" y="-1" width="6" height="2" fill="#dc2626"/><animate attributeName="opacity" values="0.15;0.25;0.15" dur="4s" repeatCount="indefinite"/></g><g transform="translate(40,-40)"><rect x="-1" y="-3" width="2" height="6" fill="#ef4444"/><rect x="-3" y="-1" width="6" height="2" fill="#ef4444"/><animate attributeName="opacity" values="0.25;0.15;0.25" dur="3.5s" repeatCount="indefinite" begin="1s"/></g><g transform="translate(-50,40)"><rect x="-1" y="-3" width="2" height="6" fill="#f87171"/><rect x="-3" y="-1" width="6" height="2" fill="#f87171"/><animate attributeName="opacity" values="0.15;0.3;0.15" dur="4.5s" repeatCount="indefinite" begin="2s"/></g><g transform="translate(45,35)"><rect x="-1" y="-3" width="2" height="6" fill="#dc2626"/><rect x="-3" y="-1" width="6" height="2" fill="#dc2626"/><animate attributeName="opacity" values="0.2;0.15;0.2" dur="3.8s" repeatCount="indefinite" begin="0.5s"/></g></g><g opacity="0.2"><circle cx="-35" cy="-25" r="1.5" fill="#ff9999"><animate attributeName="opacity" values="0.2;0.4;0.2" dur="4s" repeatCount="indefinite"/><animateTransform attributeName="transform" type="translate" values="0,0;2,-1;0,0" dur="5s" repeatCount="indefinite"/></circle><circle cx="30" cy="-30" r="1.2" fill="#ffcccc"><animate attributeName="opacity" values="0.4;0.2;0.4" dur="3.5s" repeatCount="indefinite" begin="1s"/><animateTransform attributeName="transform" type="translate" values="0,0;-1,2;0,0" dur="4.5s" repeatCount="indefinite"/></circle><circle cx="-25" cy="30" r="1.8" fill="#ff6b6b"><animate attributeName="opacity" values="0.3;0.5;0.3" dur="3.8s" repeatCount="indefinite" begin="0.5s"/></circle><circle cx="35" cy="25" r="1.3" fill="#fca5a5"><animate attributeName="opacity" values="0.2;0.35;0.2" dur="4.2s" repeatCount="indefinite" begin="1.5s"/></circle></g><g transform="scale(0.15) translate(-167, -256)"><path fill="#ef4444" d="M167.359 0C204.195 157.43 335 228.092 335 346.434c0 45.526-16.433 84.553-49.33 117.088-33.021 32.534-72.379 48.878-118.23 48.878-45.731 0-85.008-16.344-118.029-48.878C16.472 430.991 0 391.964 0 346.434 0 227.529 130.921 158.063 167.359 0z"><animate attributeName="opacity" values="1;0.95;1" dur="3s" repeatCount="indefinite"/><animateTransform attributeName="transform" type="scale" values="1;1.03;1" dur="2.5s" repeatCount="indefinite"/></path><path fill="#f87171" fill-rule="nonzero" d="M52.721 321.911c-1.319-8.32 4.355-16.139 12.676-17.459 8.321-1.319 16.14 4.355 17.459 12.676 4.351 27.115 13.555 50.472 26.139 68.9 12.548 18.381 28.434 31.74 46.089 38.822 7.827 3.136 11.627 12.028 8.491 19.854-3.136 7.828-12.028 11.627-19.855 8.491-23.311-9.351-43.979-26.54-59.961-49.947-15.006-21.977-25.942-49.566-31.038-81.337z"><animate attributeName="opacity" values="0.8;0.6;0.8" dur="3s" repeatCount="indefinite"/></path><circle cx="167" cy="346" r="60" fill="#ffffff" stroke="#e5e7eb" stroke-width="2"><animate attributeName="r" values="60;62;60" dur="2.5s" repeatCount="indefinite"/></circle><g transform="translate(167, 346)"><rect x="-10" y="-30" width="20" height="60" fill="#dc2626" rx="1"><animate attributeName="height" values="60;62;60" dur="2.5s" repeatCount="indefinite"/></rect><rect x="-30" y="-10" width="60" height="20" fill="#dc2626" rx="1"><animate attributeName="width" values="60;62;60" dur="2.5s" repeatCount="indefinite"/></rect></g></g></g><g><path id="textCurve" d="M 60 60 Q 200 40 340 60" fill="none"/><text font-size="36" font-weight="bold" font-family="'Brush Script MT', cursive" fill="url(#textGradient)" filter="url(#textShadow)"><textPath href="#textCurve" startOffset="50%" text-anchor="middle"><tspan letter-spacing="2px">BloodLink</tspan><animate attributeName="fill" values="url(#textGradient);#dc2626;url(#textGradient)" dur="3s" repeatCount="indefinite"/></textPath></text></g></svg>